<?xml version="1.0" encoding="utf-8"?>
<!-- Generator: Adobe Illustrator 24.0.0, SVG Export Plug-In . SVG Version: 6.00 Build 0)  -->
<svg version="1.1" id="Layer_1" xmlns="http://www.w3.org/2000/svg" xmlns:xlink="http://www.w3.org/1999/xlink" x="0px" y="0px"
	 viewBox="0 0 512 357" style="enable-background:new 0 0 512 357;" xml:space="preserve">
<style type="text/css">
	.st0{fill:#00C279;}
	.st1{fill:#00E891;}
</style>
<path class="st0" d="M474,0.6H38c-21,0-38,17-38,38v166.1c0,19.8,15.4,36.7,35.2,37.4c20.8,0.7,37.9-15.9,37.9-36.5v-81.1
	c0-19.8,15.4-36.7,35.2-37.4c20.8-0.7,37.9,15.9,37.9,36.5V318c0,19.8,15.4,36.7,35.2,37.4c20.8,0.7,37.9-15.9,37.9-36.5V154.7
	c0-19.8,15.4-36.7,35.2-37.4c20.8-0.7,37.9,15.9,37.9,36.5v37.6c0,19.8,15.4,36.7,35.2,37.4c20.8,0.7,37.9-15.9,37.9-36.5v-81.1
	c0-19.8,15.4-36.7,35.2-37.4c20.8-0.7,37.9,15.9,37.9,36.5v134c0,19.8,15.4,36.7,35.2,37.4c20.8,0.7,37.9-15.9,37.9-36.5V38.5
	C512,17.6,495,0.6,474,0.6z"/>
<path class="st1" d="M474,0.6H38c-21,0-38,17-38,38v37.6c0-21,17-38,38-38H474c21,0,38,17,38,38V38.5C512,17.6,495,0.6,474,0.6z"/>
</svg>
