<svg height="512" viewBox="0 0 43 58" width="512" xmlns="http://www.w3.org/2000/svg"><g id="Page-1" fill="none" fill-rule="evenodd"><g id="018---Hand-With-Eye" fill-rule="nonzero"><path id="Shape" d="m37 42s-.255-7 .739-11c1.2455107-4.213922 2.9171433-8.2899716 4.989-12.165.5491382-1.0723512.2474254-2.3842744-.715-3.109-.5718615-.4316328-1.3039022-.5915531-2.0036642-.437717-.6997621.1538361-1.2972336.6060372-1.6353358 1.237717l-4.854 9.074c-.0572368.1085871-.1846122.1598488-.3011112.121181-.1164989-.0386677-.1879419-.1559202-.1688888-.277181.772-4.636 1.878-13.589 2.4-17.942.1718389-1.41376921-.7743652-2.72128294-2.171-3-1.4602105-.29334064-2.8845274.6431232-3.194 2.1-.953 4.461-2.321 13.161-2.944 17.218-.0159128.1300934-.1292401.2260438-.2601764.2202826s-.2353984-.1112943-.2398236-.2422826l-1.634-21.369c-.1055392-1.37056398-1.2483786-2.4288777-2.623-2.429-1.4135611.00005276-2.5742524 1.11746111-2.628 2.53l-.822 21.522c0 .0336894-.0273106.061-.061.061s-.061-.0273106-.061-.061c-.4317103-6.013771-1.5133482-11.9631144-3.226-17.744-.3772888-1.31059033-1.6987618-2.11087612-3.035-1.838-.6856152.13782801-1.2881054.54304392-1.674291 1.12607522-.3861855.5830313-.5242624 1.29586311-.383709 1.98092478 2.407 11.956 2.407 28.423 2.407 28.423l-6.769-9.083c-.56829408-.7645518-1.42367833-1.2644263-2.36873825-1.3842572s-1.89813396.1507363-2.63926175.7492572c-1.20781037.9735315-1.47679077 2.7060945-.621 4l6.434 9.718s1.018 8.259 7.218 12.47c.5343033.3699085.8510371.9801639.846 1.63v2.9c0 .5522847.4477153 1 1 1h17c.5522847 0 1-.4477153 1-1v-3.127c-.0065871-.4837518.1597258-.9539669.469-1.326.842-.984 2.531-3.797 2.531-10.547z" fill="#f4cea4"/><path id="Shape" d="m17.115 38.553c-.1530005.2783615-.1530005.6156385 0 .894.893 1.542 4.085 6.553 7.885 6.553s6.992-5.011 7.885-6.553c.1530005-.2783615.1530005-.6156385 0-.894-.893-1.542-4.085-6.553-7.885-6.553s-6.992 5.011-7.885 6.553z" fill="#e3e7e8"/><path id="Shape" d="m32 32c-.2343689-.0001517-.4612391-.0826178-.641-.233-1.509-1.262-3.837-2.767-6.359-2.767s-4.85 1.5-6.358 2.767c-.2740227.2293645-.6495946.2951167-.9852415.1724883-.3356468-.1226284-.5803758-.4150071-.642-.767-.0616241-.3519929.0692188-.7101238.3432415-.9394883 5.127-4.29 10.157-4.29 15.284 0 .3227043.2699638.4419152.713043.2982395 1.1084869-.1436757.3954438-.5195038.6586616-.9402395.6585131z" fill="#f0be8c"/><path id="Shape" d="m25 51c-2.8498477-.138536-5.5579836-1.2842313-7.642-3.233-.4236024-.3545668-.4795668-.9853976-.125-1.409s.9853976-.4795668 1.409-.125c1.508 1.267 3.836 2.767 6.358 2.767s4.85-1.505 6.358-2.767c.4236024-.3545668 1.0544332-.2986024 1.409.125s.2986024 1.0544332-.125 1.409c-2.0840164 1.9487687-4.7921523 3.094464-7.642 3.233z" fill="#f0be8c"/><circle id="Oval" cx="25" cy="39" fill="#3b8eca" r="4"/><circle id="Oval" cx="25" cy="39" fill="#35495e" r="2"/><circle id="Oval" cx="23" cy="36" fill="#e3e7e8" r="2"/></g></g></svg>