<?xml version="1.0"?>
<svg xmlns="http://www.w3.org/2000/svg" xmlns:xlink="http://www.w3.org/1999/xlink" xmlns:svgjs="http://svgjs.com/svgjs" version="1.1" width="512" height="512" x="0" y="0" viewBox="0 0 251.212 251.213" style="enable-background:new 0 0 512 512" xml:space="preserve" class=""><g>
<g xmlns="http://www.w3.org/2000/svg">
	<path d="M205.08,116.04c-3.559-3.074-15.02-5.532-27.16-7.359c0.048-0.272,0.16-0.52,0.16-0.807V53.682   c0-12.295-9.623-22.299-21.444-22.299c-3.369,0-6.496,0.884-9.339,2.317V22.316C147.296,10.01,137.573,0,125.595,0   c-10.61,0-19.429,7.891-21.294,18.267c-2.964-1.575-6.289-2.55-9.859-2.55c-11.966,0-21.692,10.013-21.692,22.325V48.56   c-2.899-1.466-6.109-2.367-9.54-2.367c-11.96,0-21.681,10.007-21.681,22.305v40.099v55.28v12.637c0,43.982,34.566,74.7,84.078,74.7   c49.511,0,84.077-30.718,84.077-74.7v-51.267C209.684,121.626,206.983,117.68,205.08,116.04z M156.635,43.494   c5.16,0,9.339,4.569,9.339,10.193v53.4c-4.043-0.484-7.896-0.89-11.248-1.221c-2.767-0.188-5.172-0.097-7.43,0.119V53.688   C147.296,48.063,151.481,43.494,156.635,43.494z M197.579,176.507c0,43.243-36.144,62.595-71.972,62.595   c-35.826,0-71.973-19.352-71.973-62.595V163.87v-55.281V68.491c0-5.624,4.291-10.199,9.575-10.199c5.098,0,9.224,4.25,9.54,9.581   v48.675c0,0.103,0.047,0.189,0.059,0.29v4.389c0,3.343,2.707,6.056,6.053,6.056c3.348,0,6.052-2.713,6.052-6.056V68.497   c0-0.204-0.059-0.394-0.059-0.601V38.042c0-5.63,4.303-10.211,9.587-10.211c4.835,0,8.795,3.831,9.46,8.775v84.615   c0,3.343,2.698,6.05,6.052,6.05c3.346,0,6.053-2.707,6.053-6.05V110.83c0.03-0.23,0.133-0.437,0.133-0.671V38.042   c0-0.473-0.115-0.917-0.133-1.386V22.322c0-5.63,4.297-10.21,9.581-10.21c5.288,0,9.603,4.581,9.603,10.21v31.366v56.247   c-3.795,2.595-5.946,6.017-7.135,9.218c-4.113,11.233,1.951,23.835,13.979,28.25l32.474,8.961c3.222,0.887,6.561-0.999,7.441-4.227   c0.893-3.209-0.993-6.555-4.22-7.436l-31.983-8.818c-5.308-1.957-8.14-7.596-6.312-12.579c0.626-1.696,2.305-6.197,14.274-5.387   c18.146,1.785,39.986,5.133,43.296,7.143c0.148,0.169,0.391,0.556,0.562,0.852v50.596H197.579z M125.607,161.719   c-29.803,0-53.186,26.107-54.167,27.219c-2.016,2.287-2.016,5.722,0,8.009c0.981,1.111,24.364,27.22,54.167,27.22   c29.799,0,53.182-26.108,54.163-27.22c2.021-2.287,2.021-5.722,0-8.009C178.789,187.826,155.406,161.719,125.607,161.719z    M125.607,212.055c-17.945,0-33.884-12.508-41.062-19.127c7.161-6.621,23.049-19.11,41.062-19.11   c17.941,0,33.883,12.508,41.064,19.128C159.513,199.57,143.637,212.055,125.607,212.055z M125.607,176.525   c9.063,0,16.417,7.347,16.417,16.414c0,9.066-7.354,16.414-16.417,16.414c-9.067,0-16.415-7.348-16.415-16.414   C109.192,183.872,116.54,176.525,125.607,176.525z" fill="#ffffff" data-original="#000000" style="" class=""/>
</g>
<g xmlns="http://www.w3.org/2000/svg">
</g>
<g xmlns="http://www.w3.org/2000/svg">
</g>
<g xmlns="http://www.w3.org/2000/svg">
</g>
<g xmlns="http://www.w3.org/2000/svg">
</g>
<g xmlns="http://www.w3.org/2000/svg">
</g>
<g xmlns="http://www.w3.org/2000/svg">
</g>
<g xmlns="http://www.w3.org/2000/svg">
</g>
<g xmlns="http://www.w3.org/2000/svg">
</g>
<g xmlns="http://www.w3.org/2000/svg">
</g>
<g xmlns="http://www.w3.org/2000/svg">
</g>
<g xmlns="http://www.w3.org/2000/svg">
</g>
<g xmlns="http://www.w3.org/2000/svg">
</g>
<g xmlns="http://www.w3.org/2000/svg">
</g>
<g xmlns="http://www.w3.org/2000/svg">
</g>
<g xmlns="http://www.w3.org/2000/svg">
</g>
</g></svg>
