<?xml version="1.0" encoding="utf-8"?>
<!-- Generator: Adobe Illustrator 23.1.0, SVG Export Plug-In . SVG Version: 6.00 Build 0)  -->
<svg version="1.1" id="Capa_1" xmlns="http://www.w3.org/2000/svg" xmlns:xlink="http://www.w3.org/1999/xlink" x="0px" y="0px"
	 viewBox="0 0 200 108.88" style="enable-background:new 0 0 200 108.88;" xml:space="preserve">
<style type="text/css">
	.st0{fill:#7A623E;}
	.st1{fill:#684820;}
	.st2{fill:#4D371A;}
</style>
<g>
	<polygon class="st0" points="29.34,38.47 -0.39,37.09 0,32.3 	"/>
	<polygon class="st0" points="26.49,74.06 -2.85,76.85 -5.24,66.47 	"/>
	<polygon class="st0" points="200,37.29 173.08,37.69 200,34.4 	"/>
	<polygon class="st0" points="200.88,80.59 161.87,83.87 200.06,75.51 	"/>
	<path class="st1" d="M190.5,0c0,0-47.59,0.99-63.7,4.51S9.5,0,9.5,0C4.25,0,0,4.25,0,9.5v22.97l25.18,5.18L0,41.72L0,70.5
		l15.13,2.48L0,78.76v20.62c0,5.25,4.25,9.5,9.5,9.5h181c5.25,0,9.5-4.25,9.5-9.5V87.29l-34.31-4.16L200,76.27V62.62V40.38
		l-26.92-2.69L200,35.67V22.71V19v-3.67V9.5C200,4.25,195.75,0,190.5,0z"/>
	<path class="st2" d="M200,57.65v-11c-3.89,4.83-10.95,12.04-14.96,15.51c-15.05,13.05-34.83,21.33-55.69,23.3
		c-15.47,1.45-30.58-0.41-48.72-3.01l-1.33-0.19c-15.97-2.28-32.48-4.64-48.98-3.53C20.1,79.41,8.46,82.98,0,86.44v7.91
		c8.5-3.79,20.91-7.7,30.8-8.37c15.74-1.06,31.87,1.25,47.46,3.48l1.33,0.19c14.65,2.1,32.88,4.71,50.44,3.05
		c22.36-2.11,43.58-11,59.77-25.04C192.52,65.3,196.43,61.47,200,57.65z"/>
	<path class="st2" d="M0,11.96c14.8,1.68,29.36,9.4,43.47,16.88c5.2,2.76,10.12,5.37,15.07,7.7c10.45,4.92,21,7.86,31.35,8.72
		c1.26,0.11,2.5,0.16,3.71,0.16c7.99,0,14.96-2.29,19.89-6.59c3.73-3.26,5.76-7.58,6.02-12.85c0.27-5.2-1.29-11.33-4.48-17.72
		c-1.4-2.79,0.48-0.13-1.4-2.79l-9.44-1.16c6.04,7.13,8.47,13.24,8.06,21.3c-0.17,3.27-1.33,5.81-3.54,7.74
		c-5.64,4.92-13.82,5.04-18.2,4.66c-9.49-0.8-19.2-3.51-28.87-8.06c-4.8-2.26-9.64-4.83-14.76-7.54C32.4,14.73,17.46,6.81,1.6,4.82
		c-0.1-0.04-0.2-0.08-0.3-0.12C0.48,6.12,0,7.75,0,9.5L0,11.96z"/>
	<path class="st2" d="M143.51,18.51c2.96,13.04-0.25,26.06-8.18,33.16c-6.04,5.41-14.12,7.2-19.84,7.74
		c-7.18,0.68-14.7-0.09-21.96-0.84l-1.24-0.13c-25.44-2.6-52.74-4.47-80.07-0.61C8.32,58.38,3.26,59.38,0,60.06v7.43
		c4.19-0.89,9.55-1.94,13.24-2.46c26.56-3.75,53.34-1.91,78.31,0.64l1.23,0.13c7.62,0.78,15.49,1.59,23.39,0.84
		c9.76-0.93,18.06-4.23,24.01-9.56c5.19-4.65,8.84-11.12,10.56-18.71c1.54-6.83,1.49-14.25-0.14-21.47
		c-1.02-4.49-2.41-8.19-5.02-13.86h-8.04C140.42,8.99,142.47,13.91,143.51,18.51z"/>
</g>
</svg>
