<?xml version="1.0" encoding="utf-8"?>
<!-- Generator: Adobe Illustrator 23.1.0, SVG Export Plug-In . SVG Version: 6.00 Build 0)  -->
<svg version="1.1" id="Capa_1" xmlns="http://www.w3.org/2000/svg" xmlns:xlink="http://www.w3.org/1999/xlink" x="0px" y="0px"
	 viewBox="0 0 512 512" style="enable-background:new 0 0 512 512;" xml:space="preserve">
<style type="text/css">
	.st0{opacity:0.07;}
</style>
<g class="st0">
	<path d="M256,19C125.11,19,19,125.11,19,256s106.11,237,237,237s237-106.11,237-237C492.85,125.17,386.83,19.15,256,19z M256,479
		c-123.16,0-223-99.84-223-223S132.84,33,256,33s223,99.84,223,223C478.86,379.1,379.1,478.86,256,479z"/>
	<path d="M256,55C144.99,55,55,144.99,55,256s89.99,201,201,201s201-89.99,201-201C456.87,145.04,366.96,55.13,256,55z
		 M430.67,189.32H304.11L265.67,69.25C339.55,73.18,404.2,120.23,430.67,189.32z M189.6,290.98l54.5,39.66l-88.3,64.24L189.6,290.98
		z M182.24,268.31l-89.32-64.99h110.45L182.24,268.31z M194.14,276.97l23.94-73.65h75.83l23.94,73.65L256,322L194.14,276.97z
		 M289.41,189.32h-66.8L256,84.96L289.41,189.32z M322.4,290.98l33.78,103.91l-88.29-64.24L322.4,290.98z M308.64,203.32h110.45
		l-89.32,64.99L308.64,203.32z M246.33,69.25l-38.44,120.07H81.33C107.8,120.23,172.45,73.18,246.33,69.25z M69,256
		c0-16.26,2.12-32.46,6.32-48.17l102.36,74.48l-38.8,119.33C94.71,366.2,69,312.63,69,256z M154.66,413.04L256,339.3l101.34,73.74
		C295.69,452.99,216.31,452.99,154.66,413.04L154.66,413.04z M373.11,401.64l-38.8-119.33l102.36-74.48
		C455.76,279.32,430.83,355.34,373.11,401.64z"/>
</g>
</svg>
