<?xml version="1.0" encoding="iso-8859-1"?>
<!-- Generator: Adobe Illustrator 19.0.0, SVG Export Plug-In . SVG Version: 6.00 Build 0)  -->
<svg version="1.1" id="Capa_1" xmlns="http://www.w3.org/2000/svg" xmlns:xlink="http://www.w3.org/1999/xlink" x="0px" y="0px"
	 viewBox="0 0 511.999 511.999" style="enable-background:new 0 0 511.999 511.999;" xml:space="preserve">
<path style="fill:#EDE6F5;" d="M445.684,197.307v122.692c0,13.63-5.529,25.969-14.453,34.904
	c-8.934,8.934-21.263,14.453-34.894,14.453v59.531H115.664v-59.531c-27.25,0-49.347-22.097-49.347-49.357V197.307
	c0-52.386,21.233-99.802,55.557-134.126S203.614,7.623,256,7.623C360.762,7.623,445.684,92.545,445.684,197.307z"/>
<path style="fill:#CEC1E8;" d="M160.168,263.367l11.522,47.188c0,0,28.267,25.532,28.267,81.212c0,14.921-5.539,27.179-13.64,37.119
	h-70.651v-59.531c-27.25,0-49.347-22.097-49.347-49.357V197.307c0-52.386,21.233-99.802,55.557-134.126s81.74-55.557,134.126-55.557
	C193.999,7.623,120.817,139.757,160.168,263.367z"/>
<path style="fill:#EDE6F5;" d="M366.993,428.888H145.008v53.252c0,12.281,9.956,22.237,22.237,22.237h177.51
	c12.281,0,22.237-9.956,22.237-22.237v-53.252H366.993z"/>
<path style="fill:#CEC1E8;" d="M240.168,482.139v-53.252h-95.159v53.252c0,12.281,9.956,22.237,22.237,22.237h95.159
	C250.124,504.377,240.168,494.42,240.168,482.139z"/>
<g>
	<path style="fill:#4E4F75;" d="M256,318.814v10.243c0,8.961,7.264,16.224,16.224,16.224l0,0c10.707,0,18.478-10.189,15.647-20.514
		l-14.009-51.091c-4.98-18.165-30.743-18.165-35.725,0l-14.009,51.091c-2.832,10.326,4.94,20.514,15.647,20.514l0,0
		c8.961,0,16.224-7.264,16.224-16.224v-10.243H256z"/>
	<path style="fill:#4E4F75;" d="M327.141,216.182L327.141,216.182c-12.423,0-22.492,10.071-22.492,22.492v36.211
		c0,19.698,15.969,35.667,35.667,35.667h36.211c12.423,0,22.492-10.071,22.492-22.492l0,0
		C399.019,248.363,366.839,216.182,327.141,216.182z"/>
	<path style="fill:#4E4F75;" d="M184.861,216.182L184.861,216.182c12.423,0,22.492,10.071,22.492,22.492v36.211
		c0,19.698-15.969,35.667-35.668,35.667h-36.211c-12.423,0-22.492-10.071-22.492-22.492l0,0
		C112.983,248.363,145.163,216.182,184.861,216.182z"/>
</g>
<g>
	<path style="fill:#F7F5F0;" d="M237.074,391.767L237.074,391.767c10.251,0,18.56,8.309,18.56,18.56v18.56h-37.12v-18.56
		C218.513,400.076,226.823,391.767,237.074,391.767z"/>
	<path style="fill:#F7F5F0;" d="M274.193,391.767L274.193,391.767c10.251,0,18.56,8.309,18.56,18.56v18.56h-37.121v-18.56
		C255.634,400.076,263.943,391.767,274.193,391.767z"/>
	<path style="fill:#F7F5F0;" d="M311.314,391.767L311.314,391.767c10.251,0,18.56,8.309,18.56,18.56v18.56h-37.121v-18.56
		C292.753,400.076,301.063,391.767,311.314,391.767z"/>
	<path style="fill:#F7F5F0;" d="M348.433,391.767L348.433,391.767c10.251,0,18.56,8.309,18.56,18.56v18.56h-37.121v-18.56
		C329.874,400.076,338.183,391.767,348.433,391.767z"/>
	<path style="fill:#F7F5F0;" d="M199.953,391.767L199.953,391.767c10.251,0,18.56,8.309,18.56,18.56v18.56h-37.121v-18.56
		C181.394,400.076,189.703,391.767,199.953,391.767z"/>
	<path style="fill:#F7F5F0;" d="M162.833,391.767L162.833,391.767c10.251,0,18.56,8.309,18.56,18.56v18.56h-37.12v-18.56
		C144.273,400.076,152.583,391.767,162.833,391.767z"/>
	<path style="fill:#F7F5F0;" d="M274.193,466.007L274.193,466.007c-10.251,0-18.56-8.309-18.56-18.56v-18.56h37.121v18.56
		C292.753,457.698,284.444,466.007,274.193,466.007z"/>
	<path style="fill:#F7F5F0;" d="M237.074,466.007L237.074,466.007c-10.251,0-18.56-8.309-18.56-18.56v-18.56h37.12v18.56
		C255.634,457.698,247.323,466.007,237.074,466.007z"/>
	<path style="fill:#F7F5F0;" d="M199.953,466.007L199.953,466.007c-10.251,0-18.56-8.309-18.56-18.56v-18.56h37.12v18.56
		C218.513,457.698,210.204,466.007,199.953,466.007z"/>
	<path style="fill:#F7F5F0;" d="M162.833,466.007L162.833,466.007c-10.251,0-18.56-8.309-18.56-18.56v-18.56h37.121v18.56
		C181.394,457.698,173.083,466.007,162.833,466.007z"/>
	<path style="fill:#F7F5F0;" d="M311.314,466.007L311.314,466.007c-10.251,0-18.56-8.309-18.56-18.56v-18.56h37.121v18.56
		C329.874,457.698,321.563,466.007,311.314,466.007z"/>
	<path style="fill:#F7F5F0;" d="M348.433,466.007L348.433,466.007c-10.251,0-18.56-8.309-18.56-18.56v-18.56h37.12v18.56
		C366.993,457.698,358.684,466.007,348.433,466.007z"/>
</g>
<path d="M256,0c-39.539,0-77.687,11.653-110.322,33.7c-3.488,2.357-4.406,7.096-2.049,10.585c2.357,3.488,7.095,4.405,10.585,2.049
	c30.104-20.338,65.302-31.088,101.787-31.088c100.39,0,182.063,81.673,182.063,182.063v15.144
	c-4.048-6.48-8.86-12.549-14.397-18.085c-8.057-8.057-11.365-19.933-8.631-30.996l3.876-15.688c1.009-4.087-1.485-8.219-5.572-9.229
	c-4.084-1.007-8.219,1.485-9.229,5.572l-3.876,15.688c-4.006,16.215,0.843,33.624,12.652,45.433
	c16.236,16.236,25.178,37.822,25.178,60.784V320c0,23.009-18.719,41.728-41.728,41.728c-0.014,0-0.027,0.002-0.041,0.002
	c-14.844-0.015-28.677-8.007-36.108-20.868c-2.107-3.646-6.77-4.894-10.414-2.786c-3.645,2.106-4.893,6.769-2.786,10.414
	c8.867,15.347,24.416,25.616,41.727,27.97v44.804h-14.097v-10.937c0-14.437-11.746-26.183-26.183-26.183
	c-7.247,0-13.814,2.961-18.56,7.735c-4.746-4.774-11.313-7.735-18.56-7.735s-13.814,2.961-18.56,7.735
	c-4.746-4.774-11.313-7.735-18.56-7.735s-13.814,2.961-18.56,7.735c-4.746-4.774-11.313-7.735-18.56-7.735
	c-7.247,0-13.814,2.961-18.56,7.735c-4.746-4.774-11.313-7.735-18.56-7.735c-7.247,0-13.814,2.961-18.56,7.735
	c-4.746-4.774-11.313-7.735-18.56-7.735c-14.437,0-26.183,11.746-26.183,26.183v10.937h-13.362V376.46
	c17.311-2.354,32.859-12.623,41.727-27.97c2.107-3.645,0.859-8.308-2.786-10.414c-3.647-2.108-8.309-0.858-10.414,2.786
	c-7.431,12.861-21.264,20.853-36.108,20.868c-0.014,0-0.027-0.002-0.041-0.002c-23.009,0-41.728-18.719-41.728-41.728v-54.068
	c0-22.961,8.941-44.547,25.178-60.784c11.81-11.81,16.658-29.218,12.651-45.434l-3.877-15.688c-1.01-4.087-5.144-6.584-9.229-5.571
	c-4.087,1.009-6.581,5.142-5.572,9.229l3.877,15.688c2.733,11.063-0.574,22.938-8.631,30.996
	c-5.536,5.537-10.348,11.605-14.397,18.085V197.31c0-48.631,18.938-94.353,53.326-128.74c2.977-2.977,2.977-7.804,0-10.78
	c-2.977-2.978-7.804-2.977-10.78,0c-37.275,37.267-57.8,86.816-57.8,139.52V320c0,28.831,21.528,52.729,49.351,56.467v52.421
	c0,4.21,3.413,7.623,7.623,7.623h20.985v10.937c0,2.116,0.259,4.171,0.735,6.143v28.548c0,16.465,13.395,29.86,29.86,29.86H295.64
	c4.21,0,7.623-3.413,7.623-7.623s-3.413-7.623-7.623-7.623H167.246c-8.058,0-14.614-6.556-14.614-14.614V471.56
	c3.137,1.333,6.584,2.07,10.202,2.07c7.247,0,13.814-2.961,18.56-7.735c4.746,4.774,11.313,7.735,18.56,7.735
	c7.247,0,13.814-2.961,18.56-7.735c4.746,4.774,11.313,7.735,18.56,7.735c7.247,0,13.814-2.961,18.56-7.735
	c4.746,4.774,11.313,7.735,18.56,7.735s13.814-2.961,18.56-7.735c4.746,4.774,11.313,7.735,18.56,7.735
	c7.247,0,13.814-2.961,18.56-7.735c4.746,4.774,11.313,7.735,18.56,7.735c3.903,0,7.606-0.865,10.937-2.403v10.911
	c0,8.058-6.556,14.614-14.614,14.614h-23.703c-4.21,0-7.623,3.413-7.623,7.623s3.413,7.623,7.623,7.623h23.703
	c16.465,0,29.86-13.395,29.86-29.86v-34.692V436.51h21.72c4.21,0,7.623-3.413,7.623-7.623v-52.421
	c27.824-3.737,49.351-27.635,49.351-56.467V197.31C453.311,88.513,364.798,0,256,0z M348.433,399.39
	c6.03,0,10.937,4.906,10.937,10.937v10.937h-21.874v-10.937C337.497,404.297,342.403,399.39,348.433,399.39z M311.314,399.39
	c6.03,0,10.937,4.906,10.937,10.937v10.937h-21.874v-10.937C300.376,404.297,305.283,399.39,311.314,399.39z M274.193,399.39
	c6.03,0,10.937,4.906,10.937,10.937v10.937h-21.874v-10.937C263.257,404.297,268.163,399.39,274.193,399.39z M237.074,399.39
	c6.03,0,10.937,4.906,10.937,10.937v10.937h-21.874v-10.937C226.136,404.297,231.043,399.39,237.074,399.39z M199.953,399.39
	c6.03,0,10.937,4.906,10.937,10.937v10.937h-21.874v-10.937C189.017,404.297,193.923,399.39,199.953,399.39z M151.896,410.327
	c0-6.03,4.906-10.937,10.937-10.937c6.03,0,10.937,4.906,10.937,10.937v10.937h-21.874v-10.937H151.896z M162.834,458.384
	c-4.651,0-8.623-2.924-10.202-7.027V436.51h21.138v10.937C173.77,453.478,168.864,458.384,162.834,458.384z M199.953,458.384
	c-6.03,0-10.937-4.906-10.937-10.937v-10.937h21.874v10.937C210.89,453.478,205.984,458.384,199.953,458.384z M237.074,458.384
	c-6.03,0-10.937-4.906-10.937-10.937v-10.937h21.874v10.937C248.01,453.478,243.104,458.384,237.074,458.384z M274.193,458.384
	c-6.03,0-10.937-4.906-10.937-10.937v-10.937h21.874v10.937C285.13,453.478,280.224,458.384,274.193,458.384z M311.314,458.384
	c-6.03,0-10.937-4.906-10.937-10.937v-10.937h21.874v10.937C322.25,453.478,317.344,458.384,311.314,458.384z M348.433,458.384
	c-6.03,0-10.937-4.906-10.937-10.937v-10.937h21.874v10.937C359.37,453.478,354.464,458.384,348.433,458.384z"/>
<path d="M239.776,352.906c6.26,0,11.965-2.425,16.224-6.385c4.259,3.96,9.964,6.385,16.224,6.385c7.501,0,14.413-3.421,18.962-9.386
	s6.02-13.535,4.037-20.768l-14.009-51.091c-3.154-11.503-13.287-19.231-25.214-19.231s-22.06,7.729-25.214,19.231l-14.009,51.091
	c-1.984,7.235-0.512,14.804,4.037,20.768C225.364,349.484,232.275,352.906,239.776,352.906z M231.482,326.783l14.009-51.091
	c1.621-5.91,6.492-8.016,10.511-8.016c4.019,0,8.89,2.106,10.511,8.016l14.009,51.091c0.716,2.609,0.185,5.339-1.457,7.491
	c-1.642,2.152-4.134,3.386-6.839,3.386c-4.743,0-8.601-3.858-8.601-8.601v-10.243c0-4.21-3.413-7.623-7.623-7.623
	c-4.21,0-7.623,3.413-7.623,7.623v10.243c0,4.743-3.858,8.601-8.601,8.601c-2.706,0-5.199-1.234-6.839-3.386
	C231.297,332.123,230.766,329.392,231.482,326.783z"/>
<path d="M376.527,318.177c16.605,0,30.115-13.51,30.115-30.115c0-43.837-35.664-79.501-79.501-79.501
	c-16.606,0-30.115,13.51-30.115,30.115v36.211c0,23.871,19.42,43.29,43.291,43.29H376.527z M312.272,274.886v-36.211
	c0-8.198,6.671-14.869,14.869-14.869c35.43,0,64.255,28.825,64.255,64.256c0,8.198-6.671,14.869-14.869,14.869h-36.211
	C324.852,302.93,312.272,290.349,312.272,274.886z"/>
<path d="M135.475,318.177h36.211c23.871,0,43.291-19.42,43.291-43.29v-36.212c0-16.605-13.51-30.115-30.115-30.115
	c-43.837,0-79.501,35.664-79.501,79.502C105.36,304.666,118.869,318.177,135.475,318.177z M184.861,223.806
	c8.199,0,14.869,6.671,14.869,14.869v36.211c0,15.464-12.58,28.044-28.045,28.044h-36.211c-8.198,0-14.869-6.671-14.869-14.869
	C120.606,252.63,149.43,223.806,184.861,223.806z"/>
<g>
</g>
<g>
</g>
<g>
</g>
<g>
</g>
<g>
</g>
<g>
</g>
<g>
</g>
<g>
</g>
<g>
</g>
<g>
</g>
<g>
</g>
<g>
</g>
<g>
</g>
<g>
</g>
<g>
</g>
</svg>
