<?xml version="1.0"?>
<svg xmlns="http://www.w3.org/2000/svg" xmlns:xlink="http://www.w3.org/1999/xlink" xmlns:svgjs="http://svgjs.com/svgjs" version="1.1" width="512" height="512" x="0" y="0" viewBox="0 0 512.001 512.001" style="enable-background:new 0 0 512 512" xml:space="preserve"><g>
<g xmlns="http://www.w3.org/2000/svg">
	<g>
		<path d="M467.091,15.402h-35.805c-4.203,0-7.61,3.407-7.61,7.61s3.407,7.61,7.61,7.61h35.805c16.371,0,29.69,13.319,29.69,29.69    v304.798c0,16.371-13.319,29.69-29.69,29.69H257.108c-16.372,0-29.69-13.319-29.69-29.69V60.311    c0-16.371,13.319-29.69,29.69-29.69h148.813c4.203,0,7.61-3.407,7.61-7.61s-3.407-7.61-7.61-7.61H257.108    c-24.764,0-44.91,20.146-44.91,44.91v304.798c0,24.764,20.146,44.91,44.91,44.91h209.983c24.764,0,44.91-20.146,44.91-44.91    V60.311C512,35.548,491.854,15.402,467.091,15.402z" fill="#ffffff" data-original="#000000" style=""/>
	</g>
</g>
<g xmlns="http://www.w3.org/2000/svg">
	<g>
		<path d="M195.089,101.982H44.91c-24.764,0-44.91,20.146-44.91,44.91v200.487c0,4.203,3.407,7.61,7.61,7.61s7.61-3.407,7.61-7.61    V146.892c0-16.372,13.319-29.69,29.691-29.69h150.179c4.203,0,7.61-3.407,7.61-7.61S199.292,101.982,195.089,101.982z" fill="#ffffff" data-original="#000000" style=""/>
	</g>
</g>
<g xmlns="http://www.w3.org/2000/svg">
	<g>
		<path d="M292.193,419.489c-4.203,0-7.61,3.407-7.61,7.61v24.591c0,16.372-13.319,29.69-29.69,29.69H44.91    c-16.372,0-29.691-13.32-29.691-29.69v-78.944c0-4.203-3.407-7.61-7.61-7.61S0,368.543,0,372.746v78.944    c0,24.764,20.146,44.91,44.91,44.91h209.983c24.764,0,44.91-20.146,44.91-44.91v-24.591    C299.803,422.896,296.396,419.489,292.193,419.489z" fill="#ffffff" data-original="#000000" style=""/>
	</g>
</g>
<g xmlns="http://www.w3.org/2000/svg">
	<g>
		<path d="M430.624,212.71l27.672-47.93c1.36-2.354,1.36-5.256,0-7.61c-1.36-2.354-3.871-3.805-6.59-3.805h-55.346l-27.672-47.93    c-1.36-2.355-3.871-3.805-6.59-3.805c-2.719,0-5.23,1.45-6.59,3.805l-27.672,47.93h-55.345c-2.719,0-5.23,1.451-6.59,3.805    c-1.36,2.354-1.36,5.256,0,7.61l27.672,47.93l-27.672,47.93c-1.36,2.354-1.36,5.256,0,7.61c1.36,2.354,3.871,3.805,6.59,3.805    h55.345l27.672,47.93c1.36,2.354,3.871,3.805,6.59,3.805c2.718,0,5.231-1.451,6.59-3.805l27.672-47.93h55.346    c2.719,0,5.23-1.451,6.59-3.805c1.36-2.354,1.36-5.256,0-7.61L430.624,212.71z M438.527,168.584l-16.689,28.906l-16.689-28.906    H438.527z M362.099,124.459l16.689,28.906h-33.379L362.099,124.459z M285.671,168.584h33.379l-16.689,28.906L285.671,168.584z     M285.671,256.835l16.689-28.906l16.689,28.906H285.671z M362.099,300.961l-16.689-28.906h33.379L362.099,300.961z     M387.574,256.835h-50.952l-25.476-44.125l25.476-44.125h50.952l25.476,44.125L387.574,256.835z M405.148,256.835l16.689-28.906    l16.689,28.906H405.148z" fill="#ffffff" data-original="#000000" style=""/>
	</g>
</g>
<g xmlns="http://www.w3.org/2000/svg">
	<g>
		<path d="M306.802,69.649h-10.653V58.995c0-4.202-3.407-7.61-7.61-7.61s-7.61,3.407-7.61,7.61v10.653h-10.653    c-4.202,0-7.61,3.407-7.61,7.61s3.407,7.61,7.61,7.61h10.653v10.653c0,4.203,3.407,7.61,7.61,7.61s7.61-3.407,7.61-7.61V84.868    h10.653c4.203,0,7.61-3.407,7.61-7.61S311.005,69.649,306.802,69.649z" fill="#ffffff" data-original="#000000" style=""/>
	</g>
</g>
<g xmlns="http://www.w3.org/2000/svg">
	<g>
		<path d="M453.921,340.551h-10.653v-10.653c0-4.203-3.407-7.61-7.61-7.61s-7.61,3.407-7.61,7.61v10.653h-10.653    c-4.203,0-7.61,3.407-7.61,7.61c0,4.202,3.407,7.61,7.61,7.61h10.653v10.653c0,4.203,3.407,7.61,7.61,7.61s7.61-3.407,7.61-7.61    v-10.653h10.653c4.203,0,7.61-3.407,7.61-7.61C461.53,343.958,458.123,340.551,453.921,340.551z" fill="#ffffff" data-original="#000000" style=""/>
	</g>
</g>
<g xmlns="http://www.w3.org/2000/svg">
	<g>
		<path d="M94.605,156.229H83.952v-10.653c0-4.203-3.407-7.61-7.61-7.61s-7.61,3.407-7.61,7.61v10.653H58.079    c-4.203,0-7.61,3.407-7.61,7.61s3.407,7.61,7.61,7.61h10.653v10.653c0,4.203,3.407,7.61,7.61,7.61s7.61-3.407,7.61-7.61v-10.653    h10.653c4.203,0,7.61-3.407,7.61-7.61S98.808,156.229,94.605,156.229z" fill="#ffffff" data-original="#000000" style=""/>
	</g>
</g>
<g xmlns="http://www.w3.org/2000/svg">
	<g>
		<path d="M241.723,427.133H231.07V416.48c0-4.204-3.407-7.61-7.61-7.61c-4.203,0-7.61,3.407-7.61,7.61v10.653h-10.653    c-4.203,0-7.61,3.407-7.61,7.61s3.407,7.61,7.61,7.61h10.653v10.653c0,4.203,3.407,7.61,7.61,7.61c4.202,0,7.61-3.407,7.61-7.61    v-10.653h10.653c4.203,0,7.61-3.407,7.61-7.61S245.926,427.133,241.723,427.133z" fill="#ffffff" data-original="#000000" style=""/>
	</g>
</g>
<g xmlns="http://www.w3.org/2000/svg">
	<g>
		<path d="M193.786,365.918c-31.432,20.753-73.608,16.451-100.285-10.227c-31.1-31.1-31.1-81.703,0-112.804    c9.334-9.334,20.557-16.049,32.735-19.822c-0.29,0.28-0.577,0.562-0.862,0.847c-27.544,27.544-27.544,72.361,0,99.905    c20.121,20.121,50.162,26.211,76.532,15.517c3.895-1.58,5.771-6.017,4.192-9.912c-1.58-3.893-6.019-5.77-9.912-4.19    c-20.693,8.391-44.263,3.612-60.052-12.175c-21.61-21.61-21.61-56.772,0-78.383c7.245-7.245,16.318-12.328,26.24-14.702    c3.581-0.856,6.035-4.154,5.828-7.83c-0.208-3.676-3.016-6.676-6.671-7.125c-29.255-3.589-57.976,6.291-78.792,27.107    c-17.94,17.94-27.82,41.792-27.82,67.163c0,25.371,9.88,49.224,27.82,67.163c18.304,18.304,42.734,27.76,67.317,27.76    c18.082,0,36.249-5.118,52.115-15.594c3.508-2.315,4.473-7.036,2.157-10.543C202.013,364.566,197.292,363.601,193.786,365.918z" fill="#ffffff" data-original="#000000" style=""/>
	</g>
</g>
<g xmlns="http://www.w3.org/2000/svg">
</g>
<g xmlns="http://www.w3.org/2000/svg">
</g>
<g xmlns="http://www.w3.org/2000/svg">
</g>
<g xmlns="http://www.w3.org/2000/svg">
</g>
<g xmlns="http://www.w3.org/2000/svg">
</g>
<g xmlns="http://www.w3.org/2000/svg">
</g>
<g xmlns="http://www.w3.org/2000/svg">
</g>
<g xmlns="http://www.w3.org/2000/svg">
</g>
<g xmlns="http://www.w3.org/2000/svg">
</g>
<g xmlns="http://www.w3.org/2000/svg">
</g>
<g xmlns="http://www.w3.org/2000/svg">
</g>
<g xmlns="http://www.w3.org/2000/svg">
</g>
<g xmlns="http://www.w3.org/2000/svg">
</g>
<g xmlns="http://www.w3.org/2000/svg">
</g>
<g xmlns="http://www.w3.org/2000/svg">
</g>
</g></svg>
