<svg height="512" viewBox="0 0 50 60" width="512" xmlns="http://www.w3.org/2000/svg"><g id="Page-1" fill="none" fill-rule="evenodd"><g id="037---Tarot-Cards" fill-rule="nonzero"><path id="Shape" d="m31 1h-26c-2.209139 0-4 1.790861-4 4v42c0 2.209139 1.790861 4 4 4h26c2.209139 0 4-1.790861 4-4v-42c0-2.209139-1.790861-4-4-4zm0 39.08c-.0000254.4926572-.3622937.9103313-.85.98-2.6362251.3830962-4.7069038 2.4537749-5.09 5.09-.0696687.4877063-.4873428.8499746-.98.85h-12.16c-.4958054-.0011526-.9144608-.3685441-.98-.86-.1677792-1.1692812-.6794627-2.2622648-1.47-3.14-.93924874-1.0491721-2.2167285-1.7356847-3.61-1.94-.48949488-.0691849-.8549779-.4856655-.86-.98v-28.16c.00002539-.4926572.36229371-.9103313.85-.98 2.6362251-.3830962 4.7069038-2.4537749 5.09-5.09.0696687-.48770629.4873428-.84997461.98-.85h12.16c.4926572.00002539.9103313.36229371.98.85.3830962 2.6362251 2.4537749 4.7069038 5.09 5.09.4877063.0696687.8499746.4873428.85.98z" fill="#ffd300"/><path id="Shape" d="m31 1h-3c2.209139 0 4 1.790861 4 4v42c0 2.209139-1.790861 4-4 4h3c2.209139 0 4-1.790861 4-4v-42c0-2.209139-1.790861-4-4-4z" fill="#f5b808"/><path id="Shape" d="m31 11.92v28.16c-.0000254.4926572-.3622937.9103313-.85.98-2.6362251.3830962-4.7069038 2.4537749-5.09 5.09-.0696687.4877063-.4873428.8499746-.98.85h-12.16c-.4958054-.0011526-.9144608-.3685441-.98-.86-.1677792-1.1692812-.6794627-2.2622648-1.47-3.14-.93924874-1.0491721-2.2167285-1.7356847-3.61-1.94-.48949488-.0691849-.8549779-.4856655-.86-.98v-28.16c.00002539-.4926572.36229371-.9103313.85-.98 2.6362251-.3830962 4.7069038-2.4537749 5.09-5.09.0696687-.48770629.4873428-.84997461.98-.85h12.16c.4926572.00002539.9103313.36229371.98.85.3830962 2.6362251 2.4537749 4.7069038 5.09 5.09.4877063.0696687.8499746.4873428.85.98z" fill="#02a0eb"/><path id="Shape" d="m45 19.92v28.16c-.0000254.4926572-.3622937.9103313-.85.98-2.6362251.3830962-4.7069038 2.4537749-5.09 5.09-.0696687.4877063-.4873428.8499746-.98.85h-12.16c-.4958054-.0011526-.9144608-.3685441-.98-.86-.1677792-1.1692812-.6794627-2.2622648-1.47-3.14h7.53c2.209139 0 4-1.790861 4-4v-34h3.08c.4926572.0000254.9103313.3622937.98.85.3830962 2.6362251 2.4537749 4.7069038 5.09 5.09.4877063.0696687.8499746.4873428.85.98z" fill="#0377b3"/><path id="Shape" d="m49 13v42c0 2.209139-1.790861 4-4 4h-26c-2.209139 0-4-1.790861-4-4v-4h8.47c.7905373.8777352 1.3022208 1.9707188 1.47 3.14.0655392.4914559.4841946.8588474.98.86h12.16c.4926572-.0000254.9103313-.3622937.98-.85.3830962-2.6362251 2.4537749-4.7069038 5.09-5.09.4877063-.0696687.8499746-.4873428.85-.98v-28.16c-.0000254-.4926572-.3622937-.9103313-.85-.98-2.6362251-.3830962-4.7069038-2.4537749-5.09-5.09-.0696687-.4877063-.4873428-.8499746-.98-.85h-3.08v-4h10c2.209139 0 4 1.790861 4 4z" fill="#f5b808"/><path id="Shape" d="m35 23.813c1.1872988-.7864426 2.4880462-1.3863985 3.857-1.779.9-.253 1.521.965.879 1.715-1.824 2.135-4.736 5.737-4.736 10.251s2.913 8.116 4.737 10.251c.641.75.017 1.968-.88 1.715-1.3688824-.3927936-2.6696014-.9927364-3.857-1.779z" fill="#ececec"/><path id="Shape" d="m31 26c0 6.683601-5.0679369 12.2781471-11.719011 12.9367332-6.6510741.6585862-12.71777579-3.8334135-14.02853778-10.3872234-1.310762-6.55381 2.56157819-13.033618 8.95433358-14.9837978 6.3927554-1.9501798 13.2225994 1.2648101 15.7932152 7.434288.6609443 1.5840637 1.0008471 3.283578 1 5z" fill="#eb4335"/><path id="Shape" d="m30 21c-2.2082445-5.3723388-7.7346281-8.6062966-13.5-7.9 6.5550761.7558287 11.5020552 6.3059926 11.5020552 12.9045s-4.9469791 12.1486713-11.5020552 12.9045c.4978439.0590435.9986696.0894269 1.5.091 4.3465914 0 8.4055987-2.1723148 10.8166538-5.7888974 2.4110552-3.6165827 2.8551121-8.1988643 1.1833462-12.2111026z" fill="#bf1e1e"/><g fill="#000"><path id="Shape" d="m31 0h-26c-2.76005315.00330612-4.99669388 2.23994685-5 5v42c.00330612 2.7600532 2.23994685 4.9966939 5 5h9v3c.0033061 2.7600532 2.2399468 4.9966939 5 5h26c2.7600532-.0033061 4.9966939-2.2399468 5-5v-42c-.0033061-2.7600532-2.2399468-4.99669388-5-5h-9v-3c-.0033061-2.76005315-2.2399468-4.99669388-5-5zm5 40.843c.8640357 1.4419521 1.8606858 2.8001682 2.977 4.057.0155851.0187788.0237654.0426084.023.067-1.0536796-.3161125-2.0620453-.7671881-3-1.342zm0 6.157v-1.092c.827403.4221659 1.6933619.7640622 2.586 1.021.1672439.047235.3402138.0711277.514.071.6404881-.0051559 1.2331074-.340016 1.568-.886.5087776-.7822512.440338-1.8064009-.168-2.514-1.462-1.707-4.5-5.261-4.5-9.6s3.037-7.893 4.5-9.6c.6075313-.7076428.6755505-1.7311886.167-2.513-.4305677-.7086401-1.2815531-1.0422395-2.079-.815-.8933065.2564376-1.7599449.5980029-2.588 1.02v-8.092h2.069c.4462017 3.0702253 2.8601006 5.4804613 5.931 5.922l.009 28.147c-3.0737254.4425471-5.4884529 2.8572746-5.931 5.931h-12.15c-.1001326-.6933795-.3044377-1.3676537-.606-2h5.678c2.7600532-.0033061 4.9966939-2.2399468 5-5zm0-22.626c.9381627-.5741671 1.9464867-1.024888 3-1.341.0010459.0242639-.006774.0480791-.022.067-1.1171095 1.2557109-2.1141317 2.6133083-2.978 4.055zm-34 22.626v-42c0-1.65685425 1.34314575-3 3-3h26c1.6568542 0 3 1.34314575 3 3v42c0 1.6568542-1.3431458 3-3 3h-26c-1.65685425 0-3-1.3431458-3-3zm43-37c1.6568542 0 3 1.3431458 3 3v42c0 1.6568542-1.3431458 3-3 3h-26c-1.6568542 0-3-1.3431458-3-3v-3h6.982c.5104362.6660941.8431875 1.4510018.967 2.281.1334288.9867528.9772713 1.7219607 1.973 1.719h12.156c.9906051-.003545 1.8293583-.7317121 1.972-1.712.3207412-2.1944369 2.0444875-3.9177766 4.239-4.238.9798909-.1430898 1.7075284-.9817229 1.711-1.972v-28.156c-.003545-.9906051-.7317121-1.8293583-1.712-1.972-2.193657-.3215574-3.9164426-2.044343-4.238-4.238-.1426417-.9802879-.9813949-1.708455-1.972-1.712h-2.078v-2z"/><circle id="Oval" cx="6" cy="5" r="1"/><circle id="Oval" cx="30" cy="5" r="1"/><circle id="Oval" cx="44" cy="13" r="1"/><circle id="Oval" cx="44" cy="55" r="1"/><circle id="Oval" cx="20" cy="55" r="1"/><circle id="Oval" cx="6" cy="47" r="1"/><path id="Shape" d="m26.05 46.288c.3207412-2.1944369 2.0444875-3.9177766 4.239-4.238.9798909-.1430898 1.7075284-.9817229 1.711-1.972v-28.156c-.003545-.9906051-.7317121-1.8293583-1.712-1.972-1.0723497-.14838144-2.0653738-.6477066-2.824-1.42-.7689172-.75790299-1.2659934-1.74854-1.414-2.818-.1426417-.98028789-.9813949-1.70845498-1.972-1.712h-12.156c-.9906051.00354502-1.8293583.73171211-1.972 1.712-.14911506 1.0724111-.64831058 2.06552894-1.42 2.825-.75830649.76874568-1.74931036 1.26547802-2.819 1.413-.9798909.1430898-1.70752837.9817229-1.711 1.972v28.156c.00589692.9913363.73505766 1.8297012 1.716 1.973 2.19060873.3198845 3.91156255 2.0396186 4.233 4.23.1334288.9867528.9772713 1.7219607 1.973 1.719h12.156c.9906051-.003545 1.8293583-.7317121 1.972-1.712zm3.95-20.288c-.0022171 3.3793647-1.4338541 6.600094-3.941 8.866l-2.391-7.46 5.853-4.732c.3156957 1.0805348.4769598 2.2002936.479 3.326zm-15.86 2.752 2.36 1.877-3.937 3.184zm-5.277-6.752h5.285l-1.048 3.369zm5.915 4.7 1.465-4.7h3.592l1.51 4.712-3.251 2.629zm2.088-6.7 1.148-3.682 1.179 3.682zm5.134 8.755 1.589 4.957-3.892-3.1zm1.013-3.392-1.078-3.363h5.238zm-1.719-5.363-1.894-5.911c3.7564194.445457 7.0828951 2.6360538 8.976 5.911zm-6.523 0h-7.147c1.89550805-3.2793755 5.2280649-5.4713008 8.99-5.913zm-8.289 2.661 5.979 4.756-2.361 7.59c-3.51337699-3.0557526-4.92498467-7.8780294-3.614-12.346zm11.618 9.244 5.741 4.566c-3.5675307 2.001921-7.9112334 2.0396497-11.513.1zm-8.156-21.955c1.0731179-1.06524473 1.7678558-2.452613 1.978-3.95l12.147-.008c.4469684 3.07262399 2.8588295 5.486925 5.931 5.937v6.9c-2.5200138-4.228966-7.0771371-6.8223489-12-6.829h-.006c-4.9243771.0087307-9.48168446 2.6052566-12 6.837v-6.906c1.49654751-.2148498 2.8827897-.9100765 3.95-1.981zm.271 32.383c-1.09492731-1.2254438-2.58794462-2.0241992-4.215-2.255v-6.908c2.51660311 4.2357684 7.0795234 6.8314199 12.0064924 6.8299834 4.9269689-.0014365 9.4883749-2.5997482 12.0025076-6.8369834v6.906c-3.0737254.4425471-5.4884529 2.8572746-5.931 5.931h-12.15c-.1955484-1.3649135-.7917096-2.6411091-1.713-3.667z"/><circle id="Oval" cx="30" cy="47" r="1"/></g></g></g></svg>