<svg id="Capa_1" enable-background="new 0 0 512.235 512.235" height="512" viewBox="0 0 512.235 512.235" width="512" xmlns="http://www.w3.org/2000/svg"><g><g><path d="m395.736 348.574c64.642 15.432 107.035 41.279 107.035 70.565 0 47.273-110.431 85.596-246.654 85.596s-246.654-38.323-246.654-85.596c0-30.122 44.842-56.606 112.617-71.861l112.049-10.655h110.963z" fill="#bd80e1"/><g><g><g id="XMLID_171_"><g><path d="m416.717 354.181c-6.693-1.994-13.694-3.867-20.98-5.607l-50.644-11.951h-106.025-4.939l-112.049 10.655c-67.774 15.255-112.617 41.74-112.617 71.861 0 47.273 110.431 85.596 246.654 85.596 31.233 0 61.102-2.02 88.603-5.695-10.066.434-20.318.66-30.722.66-136.223 0-246.654-38.323-246.654-85.596 0-11.857 6.95-23.15 19.512-33.416 4.357-3.561 10.853-.206 10.359 5.399-.477 5.406-.886 10.856-1.219 16.351-.786 12.667 6.43 24.739 17.962 30.042 27.307 12.545 55.054 21.624 82.471 26.984l1.841.36 115.454.703 1.849-.339c29.015-5.318 58.381-14.792 87.275-28.158 11.222-5.186 18.273-16.517 17.964-28.859-.403-16.275-1.855-32.674-4.095-48.99z" fill="#af66da"/><path d="m156.819 405.483 203.581-2.847 35.834-50.743c-12.643-85.981-48.084-169.442-72.02-218.479-1.419-2.908.888-6.243 4.11-5.946l66.273 6.11c16.81 1.54 26.15-18.97 13.95-30.63l-92.04-87.95c-5.03-4.81-11.73-7.5-18.69-7.5-3.86 0-7.63.82-11.07 2.37-3.45 1.54-6.57 3.8-9.13 6.68-29.746 33.417-129.972 157.345-156.336 336.115z" fill="#cb97e7"/></g></g></g><path d="m316.507 14.998c-5.03-4.81-11.73-7.5-18.69-7.5-3.86 0-7.63.82-11.07 2.37-3.45 1.54-6.57 3.8-9.13 6.68-29.747 33.417-129.975 157.348-156.337 336.122l14.278 30.624 33.264-12.554c27.251-176.627 126.217-298.958 155.742-332.126 2.56-2.88 5.68-5.14 9.13-6.68.123-.055.249-.103.373-.156z" fill="#bd80e1"/><g id="XMLID_172_"><g><path d="m122.307 353.048c26.29 12.08 52.58 20.64 78.86 25.69l36.12 9.07h42.67l31.29-8.43c27.74-5.01 55.47-13.93 83.21-26.76l1.78-.73c2.54 17.24 4.16 34.59 4.58 51.78.11 4.36-2.4 8.38-6.36 10.21-27.5 12.72-54.99 21.6-82.49 26.64l-111.7-.68c-25.98-5.08-51.97-13.59-77.96-25.53-4.11-1.89-6.63-6.12-6.35-10.63 1.06-17.44 2.869-34.506 5.309-51.036z" fill="#bc7c63"/></g></g><g id="XMLID_173_"><g><path d="m311.967 384.438v62.41c0 10.26-8.32 18.58-18.58 18.58h-74.54c-10.26 0-18.58-8.32-18.58-18.58v-62.41c0-10.26 8.32-18.58 18.58-18.58h74.54c10.26 0 18.58 8.32 18.58 18.58zm-30 47.006v-31.602c0-2.2-1.784-3.984-3.984-3.984h-43.732c-2.2 0-3.984 1.784-3.984 3.984v31.602c0 2.2 1.784 3.984 3.984 3.984h43.732c2.2 0 3.984-1.784 3.984-3.984z" fill="#fee97d"/></g></g></g><path d="m168.821 370.74c-15.503-4.678-31.008-10.568-46.514-17.692l-1.041-.406c-2.44 16.53-4.249 33.596-5.309 51.036-.28 4.51 2.24 8.74 6.35 10.63 13.776 6.329 27.552 11.684 41.327 16.085-.565-1.451-.83-3.031-.729-4.649 1.144-18.864 3.17-37.207 5.916-55.004z" fill="#aa6a51"/></g><g><path d="m176.96 171.174c1.058.516 2.178.76 3.281.76 2.778 0 5.448-1.551 6.747-4.216 37.014-75.943 79.631-127.532 96.235-146.187 3.694-4.151 9.013-6.532 14.591-6.532 5.059 0 9.858 1.925 13.516 5.42l92.03 87.954c4.917 4.698 2.974 10.169 2.262 11.733-.713 1.565-3.546 6.623-10.337 5.999l-69.549-6.406c-10.775-21.417-18.236-34.177-18.426-34.5-2.101-3.568-6.697-4.757-10.268-2.656-3.568 2.102-4.758 6.699-2.657 10.268.484.822 48.744 83.396 77.563 183.661.945 3.289 3.945 5.43 7.204 5.43.687 0 1.384-.095 2.075-.294 3.981-1.144 6.281-5.299 5.137-9.28-15.462-53.797-36.42-102.584-52.874-136.851l60.421 5.565c10.873 1.001 20.835-4.775 25.363-14.719 4.527-9.943 2.349-21.246-5.55-28.794l-92.03-87.954c-6.462-6.174-14.942-9.575-23.88-9.575-9.854 0-19.257 4.213-25.796 11.559-17.018 19.119-60.683 71.968-98.514 149.587-1.814 3.724-.267 8.214 3.456 10.028z"/><path d="m402.355 342.476c-2.069-12.637-4.662-25.58-7.775-38.782-.95-4.033-4.997-6.528-9.021-5.579-4.032.95-6.529 4.989-5.579 9.021 3.235 13.723 5.884 27.139 7.958 40.204-24.002 10.819-48.27 18.73-72.277 23.554-4.584-7.509-12.855-12.532-22.277-12.532h-74.534c-9.144 0-17.198 4.734-21.856 11.876-22.403-4.748-45.041-12.183-67.438-22.149 8.059-51.231 22.862-102.033 44.242-151.639 1.639-3.804-.115-8.216-3.919-9.856-3.803-1.64-8.216.115-9.856 3.919-21.232 49.264-36.131 99.701-44.537 150.594-72.227 17.083-113.523 45.399-113.523 78.032 0 26.304 27.447 50.315 77.284 67.611 47.357 16.434 110.171 25.485 176.87 25.485s129.512-9.051 176.869-25.485c49.838-17.295 77.285-41.307 77.285-67.611 0-31.626-39.253-59.442-107.916-76.663zm-183.505 30.885h74.534c6.11 0 11.081 4.971 11.081 11.081v62.406c0 6.11-4.971 11.081-11.081 11.081h-74.534c-6.11 0-11.081-4.971-11.081-11.081v-23.703h15v12.284c0 4.142 3.358 7.5 7.5 7.5h51.695c4.143 0 7.5-3.358 7.5-7.5v-39.567c0-4.142-3.357-7.5-7.5-7.5h-51.694c-4.142 0-7.5 3.358-7.5 7.5v12.284h-15v-23.703c0-6.111 4.97-11.082 11.08-11.082zm28.442 34.784h-9.522v-4.784h36.695v24.567h-36.695v-4.784h9.522c4.142 0 7.5-3.358 7.5-7.5s-3.358-7.499-7.5-7.499zm-54.522-23.477v23.476h-.976c-4.142 0-7.5 3.358-7.5 7.5s3.358 7.5 7.5 7.5h.976v7.427c-22.377-5.073-44.982-12.81-67.327-23.077-1.283-.589-2.087-1.942-2-3.367.823-13.562 2.126-27.114 3.893-40.641 21.721 9.384 43.665 16.487 65.434 21.182zm235.299 87.911c-45.817 15.899-106.884 24.656-171.952 24.656s-126.135-8.756-171.952-24.656c-42.708-14.821-67.202-34.299-67.202-53.44 0-14.92 14.882-27.347 27.366-35.144 16.805-10.496 40.419-19.699 68.722-26.845-2.116 15.329-3.649 30.691-4.582 46.069-.458 7.555 3.845 14.75 10.71 17.905 24.39 11.206 49.115 19.538 73.59 24.816v.907c0 14.381 11.7 26.081 26.081 26.081h74.534c14.381 0 26.081-11.7 26.081-26.081v-.158c7.685-1.568 15.461-3.44 23.201-5.609 3.988-1.118 6.315-5.257 5.197-9.246-1.118-3.988-5.256-6.312-9.246-5.197-6.39 1.791-12.798 3.355-19.152 4.712v-45.929c23.51-4.789 47.22-12.389 70.679-22.65 1.786 14.189 2.85 27.91 3.175 41.081.034 1.375-.755 2.639-2.009 3.22-7.477 3.458-15.146 6.701-22.797 9.637-3.867 1.484-5.799 5.822-4.314 9.689 1.145 2.983 3.988 4.814 7.004 4.814.893 0 1.802-.161 2.686-.5 7.961-3.055 15.94-6.429 23.72-10.027 6.687-3.094 10.89-9.847 10.707-17.205-.355-14.384-1.564-29.386-3.593-44.897 56.153 15.039 90.55 37.854 90.55 60.555-.002 19.143-24.496 38.621-67.204 53.442z"/></g></g></svg>