<svg id="Capa_1" enable-background="new 0 0 512 512" height="512" viewBox="0 0 512 512" width="512" xmlns="http://www.w3.org/2000/svg"><g><path d="m256 0h-75v61c0 33.091 26.909 60 60 60h15 15c33.091 0 60-26.909 60-60v-61z" fill="#384949"/><path d="m331 61v-61h-75v121h15c33.091 0 60-26.909 60-60z" fill="#293939"/><path d="m346 151h-15v-45h-75-75v45h-15c-41.353 0-75 33.647-75 75v210c0 41.353 33.647 76 75 76h90 90c41.353 0 75-34.647 75-76v-210c0-41.353-33.647-75-75-75z" fill="#b6de3d"/><path d="m421 436v-210c0-41.353-33.647-75-75-75h-15v-45h-75v406h90c41.353 0 75-34.647 75-76z" fill="#75c34e"/><path d="m256 241c-41.353 0-75 33.647-75 75v30c0 19.556 12.539 36.24 30 42.437v32.563h45 45v-32.563c17.461-6.196 30-22.881 30-42.437v-30c0-41.353-33.647-75-75-75z" fill="#edf5ff"/><path d="m301 388.437c17.461-6.196 30-22.881 30-42.437v-30c0-41.353-33.647-75-75-75v180h45z" fill="#d5e8fe"/><path d="m211 301h30v30h-30z" fill="#384949"/><path d="m271 301h30v30h-30z" fill="#293939"/><path d="m256 91h-105v30h105 105v-30z" fill="#edf5ff"/><path d="m256 91h105v30h-105z" fill="#d5e8fe"/></g></svg>