<svg viewBox="-28 0 512 512.00003" xmlns="http://www.w3.org/2000/svg"><path d="m424.664062 184.371094h-98.75c-9.238281 0-15.066406-9.941406-10.554687-18l62.535156-111.6875c11.828125-21.128906-3.441406-47.183594-27.65625-47.183594h-195.234375c-21.875 0-42.042968 11.820312-52.730468 30.910156l-90.675782 161.949219c-11.828125 21.128906 3.441406 47.183594 27.65625 47.183594h88.066406c9.144532 0 14.980469 9.753906 10.65625 17.808593l-106.945312 199.289063c-13.574219 25.289063 16.535156 51.445313 39.679688 34.472656l368.507812-270.285156c19.179688-14.066406 9.230469-44.457031-14.554688-44.457031zm0 0" fill="#ff94de"/><path d="m39.253906 247.542969h63.917969c9.28125-33.441407 20.988281-60.597657 33.488281-82.613281 30.761719-54.183594 89.902344-85.511719 152.113282-82.105469 35.320312 1.933593 61.03125-3.355469 79.214843-10.449219l9.90625-17.691406c11.828125-21.128906-3.441406-47.183594-27.65625-47.183594h-195.234375c-21.875 0-42.042968 11.820312-52.730468 30.910156l-90.675782 161.949219c-11.832031 21.128906 3.441406 47.183594 27.65625 47.183594zm0 0" fill="#ff71da"/><path d="m127.320312 247.542969c9.144532 0 14.980469 9.753906 10.65625 17.808593l-106.945312 199.289063c-13.574219 25.289063 16.535156 51.445313 39.679688 34.472656l12.132812-8.898437 141.777344-265.894532c8.886718-16.660156-3.1875-36.785156-22.070313-36.785156h-102.21875c-5.722656 0-9.332031-6.15625-6.53125-11.148437 17.320313-30.851563 66.476563-118.414063 94.859375-168.886719h-33.65625c-21.875 0-42.042968 11.820312-52.730468 30.910156l-90.675782 161.949219c-11.828125 21.128906 3.441406 47.179687 27.65625 47.179687h88.066406zm0 0" fill="#ffde55"/><path d="m102.273438 38.410156-90.675782 161.949219c-11.828125 21.128906 3.441406 47.179687 27.65625 47.179687h63.917969c6.328125-22.800781 13.78125-42.679687 21.851563-60h-24.691407c-5.722656 0-9.332031-6.160156-6.527343-11.148437 17.316406-30.855469 66.472656-118.417969 94.855468-168.890625h-33.65625c-21.875 0-42.042968 11.824219-52.730468 30.910156zm0 0" fill="#ffcd00"/><path d="m455.183594 198.992188c-4.402344-13.4375-16.378906-22.121094-30.519532-22.121094h-98.753906c-5.714844 0-5.167968-4.765625-4.007812-6.835938l11.65625-20.820312c2.023437-3.613282.734375-8.183594-2.878906-10.207032-3.613282-2.023437-8.183594-.734374-10.207032 2.878907l-11.65625 20.820312c-3.4375 6.132813-3.363281 13.414063.191406 19.480469 3.554688 6.0625 9.871094 9.683594 16.902344 9.683594h98.753906c9.144532 0 14.394532 6.089844 16.261719 11.785156 1.863281 5.699219 1.230469 13.714844-6.140625 19.121094l-329.839844 241.921875 37.167969-69.703125c1.949219-3.65625.566407-8.199219-3.089843-10.148438-3.652344-1.945312-8.195313-.5625-10.144532 3.089844l-51.851562 97.242188-10.75 7.886718c-9.246094 6.777344-18.847656 3.699219-24.257813-1-5.410156-4.703125-9.804687-13.773437-4.382812-23.878906l106.945312-199.285156c3.292969-6.132813 3.125-13.355469-.449219-19.328125-3.570312-5.96875-9.855468-9.53125-16.8125-9.53125h-88.066406c-8.683594 0-16.484375-4.472657-20.875-11.960938s-4.480468-16.480469-.238281-24.054687l90.679687-161.953125c9.347657-16.699219 27.046876-27.074219 46.183594-27.074219h20.835938c-26.648438 47.40625-66.273438 117.980469-88.578125 157.71875-2.632813 4.691406-2.582031 10.261719.136719 14.902344 2.71875 4.644531 7.550781 7.417968 12.933593 7.417968h102.21875c6.207031 0 11.820313 3.179688 15.015625 8.5 3.195313 5.324219 3.359375 11.773438.4375 17.253907l-73.46875 137.78125c-1.949218 3.652343-.5625 8.195312 3.09375 10.148437 1.121094.597656 7.332032 2.347656 10.144532-3.09375l73.464843-137.777344c5.425781-10.171874 5.121094-22.144531-.808593-32.027343-5.933594-9.886719-16.355469-15.785157-27.882813-15.785157l-102.203125.023438c23.488281-41.847656 66.183594-117.894531 92.703125-165.0625h157.191406c8.683594 0 16.484375 4.472656 20.875 11.960938 4.390625 7.488281 4.476563 16.480468.238281 24.058593l-36.003906 64.300781c-2.023437 3.613282-.734375 8.183594 2.878906 10.207032 3.617188 2.023437 8.1875.734375 10.210938-2.878906l36-64.300782c6.871094-12.273437 6.726562-26.839844-.382812-38.972656-7.113282-12.132812-19.753907-19.375-33.816407-19.375h-195.234375c-24.5625 0-47.273437 13.316406-59.273437 34.746094l-90.675781 161.949218c-6.871094 12.269532-6.730469 26.839844.382812 38.972657 7.109375 12.128906 19.753906 19.375 33.816406 19.375h88.066406c5.382813 0 5.160157 4.691406 4.046876 6.765625l-106.945313 199.285156c-7.785156 14.503906-4.664063 31.5 7.761719 42.292969 6.589844 5.726562 14.539062 8.613281 22.53125 8.613281 7.082031 0 14.199218-2.269531 20.433594-6.839844l368.507812-270.285156c11.402344-8.363281 15.925781-22.449219 11.527344-35.882812zm0 0"/></svg>