<?xml version="1.0" encoding="iso-8859-1"?>
<!-- Generator: Adobe Illustrator 19.0.0, SVG Export Plug-In . SVG Version: 6.00 Build 0)  -->
<svg version="1.1" id="Capa_1" xmlns="http://www.w3.org/2000/svg" xmlns:xlink="http://www.w3.org/1999/xlink" x="0px" y="0px"
	 viewBox="0 0 512.003 512.003" style="enable-background:new 0 0 512.003 512.003;" xml:space="preserve">
<g>
	<path style="fill:#E6646E;" d="M464.42,175.839l23.762-7.558c4.821-2.314,6.098-8.553,2.54-12.544
		c-12.356-13.858-41.155-42.376-82.415-60.059l24.048-16.032c0,0-1.962-5.679-8.016-8.016
		c-36.917-14.253-146.637-39.623-224.452,64.129l304.614,240.483v-144.29L464.42,175.839z"/>
	<path style="fill:#E6646E;" d="M14.18,16.096l169.676,191.808l56.113-64.129L18.503,10.895
		C15.148,8.882,11.588,13.165,14.18,16.096z"/>
</g>
<path style="fill:#EDEBED;" d="M272.033,110.004c-11.192,3.12-21.947,9.066-32.065,17.738L12.263,331.892
	c-3.208,2.876-4.936,7.234-4.131,11.467c1.859,9.796,7.595,14.34,13.67,16.319c2.624,0.855,4.783,2.667,6.008,5.14
	c3.106,6.269,8.597,17.359,8.597,17.359c4.016,8.184,14.005,11.428,22.005,7.058c2.955-1.613,6.188-3.59,9.509-5.703l27.982,17.05
	c4.795,2.904,10.705,3.118,15.674,0.523c23.986-12.52,97.771-49.227,152.44-56.927c11.4-1.606,21.993-4.648,31.8-8.686L360.21,504.5
	l144.291-128.258c-9.484-28.909-45.572-124.929-68.804-161.659C409.74,173.547,352.195,87.661,272.033,110.004z"/>
<g>
	<path style="fill:#DBD9DC;" d="M272.033,39.651v79.947c0,8.729,5.77,16.179,13.643,17.614l15.404,2.808
		c10.541,1.921,19.994-7.623,18.974-19.257c-4.633-52.849-24.95-76.829-37.626-86.82C278.08,30.517,272.033,33.789,272.033,39.651z"
		/>
	<path style="fill:#DBD9DC;" d="M333.837,306.354c-9.556,12.179-22.522,22.201-38.047,29.062l64.42,169.082l0,0l55.301-50.691
		L333.837,306.354z"/>
</g>
<polygon style="fill:#00C3FF;" points="127.743,144.471 167.824,189.78 167.824,100.487 127.743,76.438 "/>
<polygon style="fill:#D4F582;" points="87.662,99.162 127.743,144.471 127.743,76.438 87.662,52.39 "/>
<path style="fill:#FFC850;" d="M18.503,10.895c-3.355-2.013-6.915,2.271-4.323,5.201l73.482,83.067l0,0V52.39L18.503,10.895z"/>
<path d="M305.422,339.611c20.832-9.974,37.715-25.081,48.565-44.024c15.827-27.633,17.179-60.736,3.807-93.211
	c-1.579-3.83-5.962-5.658-9.791-4.08c-3.83,1.577-5.656,5.96-4.08,9.791c11.569,28.096,10.521,56.523-2.951,80.046
	c-14.9,26.015-43.33,43.735-78,48.618c-54.781,7.716-126.551,42.926-154.864,57.706c-2.636,1.376-5.745,1.27-8.318-0.29
	l-17.956-10.875c14.445-10.181,30.499-23.622,43.48-38.119c2.764-3.086,2.502-7.827-0.584-10.59
	c-3.084-2.764-7.826-2.501-10.59,0.583c-18.267,20.397-42.956,38.547-59.322,47.486c-2.03,1.107-4.364,1.333-6.569,0.632
	c-2.247-0.713-4.061-2.28-5.106-4.412l-5.261-10.724c1.815-0.262,3.069-0.555,3.504-0.664c4.019-1.004,6.461-5.077,5.457-9.095
	c-1.005-4.019-5.08-6.462-9.096-5.457c-0.108,0.027-11.271,2.526-17.602-2.417c-2.852-2.226-4.528-5.963-5.003-11.133l229.77-206
	c6.113-5.23,12.689-9.414,19.622-12.555v6.913c0,4.142,3.357,7.5,7.5,7.5s7.5-3.358,7.5-7.5V44.62
	c3.436,2.678,7.423,6.42,11.39,11.536c14.201,18.318,21.707,45.843,21.707,79.601c0,4.142,3.357,7.5,7.5,7.5s7.5-3.358,7.5-7.5
	c0-5.182-0.168-10.119-0.471-14.844c4.273,1.206,8.586,2.837,12.894,4.891c1.041,0.497,2.14,0.732,3.223,0.732
	c2.801,0,5.488-1.577,6.774-4.274c1.783-3.739,0.197-8.215-3.542-9.998c-6.974-3.326-14.014-5.724-20.986-7.182
	c-2.199-15.057-5.956-27.405-10.469-37.509c43.154-8.06,83.138,1.439,104.021,8.219l-28.957,15.252
	c-2.688,1.416-4.257,4.314-3.972,7.339c0.285,3.025,2.367,5.58,5.273,6.468c40.573,12.411,76.572,41.947,92.293,56.205l-25.98,9.947
	c-2.591,0.992-4.412,3.339-4.752,6.092s0.877,5.475,3.148,7.067c0.19,0.133,19.309,13.754,42.082,48.862
	c1.437,2.214,3.843,3.419,6.299,3.419c1.398,0,2.813-0.391,4.074-1.209c3.476-2.254,4.465-6.898,2.211-10.374
	c-14.354-22.13-27.379-36.294-35.901-44.367l25.277-9.678c2.352-0.9,4.094-2.92,4.64-5.378c0.546-2.458-0.178-5.025-1.927-6.836
	c-1.788-1.852-40.482-41.519-90.723-62.215l28.702-15.118c2.523-1.329,4.075-3.975,4.003-6.827
	c-0.073-2.852-1.757-5.415-4.346-6.614c-2.6-1.205-63.555-28.894-132.886-14.079c-14.572-22.738-31.979-28.898-33.228-29.315
	c-2.291-0.764-4.803-0.379-6.758,1.031s-3.114,3.674-3.114,6.084V68.84c-22.131,11.117-42.086,27.03-59.416,47.364L11.332,1.052
	c-3.165-1.88-7.229-1.185-9.589,1.641c-2.359,2.827-2.318,6.949,0.099,9.728l155.745,179.107L2.494,330.577
	c-1.587,1.422-2.493,3.453-2.493,5.584c0,11.718,3.672,20.525,10.912,26.179c3.08,2.405,6.458,3.939,9.81,4.893l8.952,18.246
	c2.823,5.756,7.938,10.167,14.034,12.103c2.345,0.745,4.741,1.114,7.124,1.114c3.858,0,7.678-0.969,11.174-2.879
	c1.876-1.025,3.859-2.169,5.92-3.41l24.092,14.591c3.774,2.286,7.978,3.436,12.188,3.436c3.704,0,7.413-0.89,10.842-2.68
	c21.554-11.251,96.07-48.551,150.015-56.149c9.242-1.302,18.097-3.437,26.469-6.317l61.669,161.883
	c1.14,2.992,3.988,4.832,7.01,4.832c0.888,0,1.79-0.159,2.669-0.493c3.871-1.475,5.813-5.808,4.339-9.679L305.422,339.611z
	 M264.533,85.838v18.768c-10.559,3.879-20.443,9.726-29.445,17.442c-0.042,0.036-0.084,0.073-0.126,0.11l-7.903,7.085l-8.85-5.259
	C232.024,108.182,247.555,95.403,264.533,85.838z M43.764,37.772l171.591,101.964l-46.599,41.778L43.764,37.772z"/>
<path d="M511.628,369.897c-0.142-0.431-14.404-43.68-38.207-94.356c-32.169-68.488-65.563-117.351-99.256-145.233
	c-3.188-2.64-7.917-2.194-10.56,0.997c-2.641,3.191-2.194,7.919,0.997,10.56c76.575,63.369,132.219,231.02,132.771,232.707
	c1.037,3.16,3.972,5.164,7.126,5.164c0.774,0,1.563-0.121,2.338-0.375C510.773,378.069,512.918,373.833,511.628,369.897z"/>
<path d="M259.021,202.311c-4.349,3.885-11.471,6.205-19.052,6.205s-14.703-2.32-19.052-6.205c-3.089-2.761-7.831-2.493-10.59,0.595
	c-2.76,3.089-2.493,7.83,0.596,10.59c7.126,6.368,17.713,10.021,29.046,10.021s21.92-3.652,29.046-10.021
	c3.089-2.76,3.355-7.501,0.596-10.59C266.85,199.818,262.109,199.55,259.021,202.311z"/>
<g>
</g>
<g>
</g>
<g>
</g>
<g>
</g>
<g>
</g>
<g>
</g>
<g>
</g>
<g>
</g>
<g>
</g>
<g>
</g>
<g>
</g>
<g>
</g>
<g>
</g>
<g>
</g>
<g>
</g>
</svg>
